<mxfile host="app.diagrams.net" modified="2023-12-13T14:56:46.123Z" agent="Mozilla/5.0 (Windows NT 10.0; Win64; x64) AppleWebKit/537.36 (KHTML, like Gecko) Chrome/120.0.0.0 Safari/537.36 Edg/120.0.0.0" etag="ZPRnV02ZjVSJTNFQwELN" version="22.1.8" type="device">
  <diagram name="Trang-1" id="02Aodd_ioGIgcToNidwh">
    <mxGraphModel dx="1882" dy="-556" grid="1" gridSize="10" guides="1" tooltips="1" connect="1" arrows="1" fold="1" page="1" pageScale="1" pageWidth="827" pageHeight="1169" math="0" shadow="0">
      <root>
        <mxCell id="0" />
        <mxCell id="1" parent="0" />
        <mxCell id="dYfUtoOKjhOXSEv8nHm--35" value="Nhân viên order&lt;br&gt;" style="rounded=0;whiteSpace=wrap;html=1;" vertex="1" parent="1">
          <mxGeometry x="217.10000000000002" y="1700" width="120" height="60" as="geometry" />
        </mxCell>
        <mxCell id="dYfUtoOKjhOXSEv8nHm--39" value="&lt;u&gt;mã nhân viên&lt;/u&gt;" style="ellipse;whiteSpace=wrap;html=1;" vertex="1" parent="1">
          <mxGeometry x="117.1" y="1549" width="100" height="50" as="geometry" />
        </mxCell>
        <mxCell id="dYfUtoOKjhOXSEv8nHm--40" value="&lt;span&gt;họ tên&lt;/span&gt;" style="ellipse;whiteSpace=wrap;html=1;fontStyle=0" vertex="1" parent="1">
          <mxGeometry x="203.10000000000002" y="1580" width="100" height="50" as="geometry" />
        </mxCell>
        <mxCell id="dYfUtoOKjhOXSEv8nHm--41" value="&lt;span&gt;sdt&lt;/span&gt;" style="ellipse;whiteSpace=wrap;html=1;fontStyle=0" vertex="1" parent="1">
          <mxGeometry x="277.1" y="1540" width="100" height="50" as="geometry" />
        </mxCell>
        <mxCell id="dYfUtoOKjhOXSEv8nHm--42" value="" style="endArrow=none;html=1;rounded=0;" edge="1" parent="1" target="dYfUtoOKjhOXSEv8nHm--40" source="dYfUtoOKjhOXSEv8nHm--35">
          <mxGeometry width="50" height="50" relative="1" as="geometry">
            <mxPoint x="258.1" y="1610" as="sourcePoint" />
            <mxPoint x="313.1" y="1590" as="targetPoint" />
          </mxGeometry>
        </mxCell>
        <mxCell id="dYfUtoOKjhOXSEv8nHm--43" value="" style="endArrow=none;html=1;rounded=0;" edge="1" parent="1" target="dYfUtoOKjhOXSEv8nHm--41" source="dYfUtoOKjhOXSEv8nHm--35">
          <mxGeometry width="50" height="50" relative="1" as="geometry">
            <mxPoint x="281.1" y="1610" as="sourcePoint" />
            <mxPoint x="403.1" y="1620" as="targetPoint" />
          </mxGeometry>
        </mxCell>
        <mxCell id="dYfUtoOKjhOXSEv8nHm--44" value="" style="endArrow=none;html=1;rounded=0;" edge="1" parent="1" target="dYfUtoOKjhOXSEv8nHm--45" source="dYfUtoOKjhOXSEv8nHm--35">
          <mxGeometry width="50" height="50" relative="1" as="geometry">
            <mxPoint x="315.1" y="1610" as="sourcePoint" />
            <mxPoint x="431.30000000000007" y="1700" as="targetPoint" />
          </mxGeometry>
        </mxCell>
        <mxCell id="dYfUtoOKjhOXSEv8nHm--45" value="&lt;span&gt;email&lt;/span&gt;" style="ellipse;whiteSpace=wrap;html=1;fontStyle=0" vertex="1" parent="1">
          <mxGeometry x="313.1" y="1599" width="100" height="50" as="geometry" />
        </mxCell>
        <mxCell id="dYfUtoOKjhOXSEv8nHm--46" value="" style="endArrow=none;html=1;rounded=0;" edge="1" parent="1" source="dYfUtoOKjhOXSEv8nHm--35" target="dYfUtoOKjhOXSEv8nHm--39">
          <mxGeometry width="50" height="50" relative="1" as="geometry">
            <mxPoint x="278.1" y="1710" as="sourcePoint" />
            <mxPoint x="225.10000000000002" y="1540" as="targetPoint" />
          </mxGeometry>
        </mxCell>
        <mxCell id="dYfUtoOKjhOXSEv8nHm--47" value="Hoá đơn" style="rounded=0;whiteSpace=wrap;html=1;" vertex="1" parent="1">
          <mxGeometry x="-344" y="1850" width="120" height="60" as="geometry" />
        </mxCell>
        <mxCell id="dYfUtoOKjhOXSEv8nHm--48" value="&lt;u&gt;mã hoá đơn&lt;/u&gt;" style="ellipse;whiteSpace=wrap;html=1;" vertex="1" parent="1">
          <mxGeometry x="-466" y="2045.39" width="100" height="50" as="geometry" />
        </mxCell>
        <mxCell id="dYfUtoOKjhOXSEv8nHm--49" value="ngày tạo" style="ellipse;whiteSpace=wrap;html=1;fontStyle=0" vertex="1" parent="1">
          <mxGeometry x="-350" y="2025.39" width="100" height="50" as="geometry" />
        </mxCell>
        <mxCell id="dYfUtoOKjhOXSEv8nHm--50" value="&lt;span&gt;số điện thoại thành viên&lt;/span&gt;" style="ellipse;whiteSpace=wrap;html=1;fontStyle=0" vertex="1" parent="1">
          <mxGeometry x="-466" y="1975.39" width="100" height="50" as="geometry" />
        </mxCell>
        <mxCell id="dYfUtoOKjhOXSEv8nHm--51" value="" style="endArrow=none;html=1;rounded=0;" edge="1" parent="1" source="dYfUtoOKjhOXSEv8nHm--47" target="dYfUtoOKjhOXSEv8nHm--49">
          <mxGeometry width="50" height="50" relative="1" as="geometry">
            <mxPoint x="-295" y="1783.13" as="sourcePoint" />
            <mxPoint x="-240" y="1763.13" as="targetPoint" />
          </mxGeometry>
        </mxCell>
        <mxCell id="dYfUtoOKjhOXSEv8nHm--52" value="" style="endArrow=none;html=1;rounded=0;" edge="1" parent="1" source="dYfUtoOKjhOXSEv8nHm--47" target="dYfUtoOKjhOXSEv8nHm--50">
          <mxGeometry width="50" height="50" relative="1" as="geometry">
            <mxPoint x="-272" y="1783.13" as="sourcePoint" />
            <mxPoint x="-150" y="1793.13" as="targetPoint" />
          </mxGeometry>
        </mxCell>
        <mxCell id="dYfUtoOKjhOXSEv8nHm--53" value="" style="endArrow=none;html=1;rounded=0;" edge="1" parent="1" source="dYfUtoOKjhOXSEv8nHm--47" target="dYfUtoOKjhOXSEv8nHm--54">
          <mxGeometry width="50" height="50" relative="1" as="geometry">
            <mxPoint x="-238" y="1783.13" as="sourcePoint" />
            <mxPoint x="-121.79999999999995" y="1873.13" as="targetPoint" />
          </mxGeometry>
        </mxCell>
        <mxCell id="dYfUtoOKjhOXSEv8nHm--54" value="mã khuyến mãi" style="ellipse;whiteSpace=wrap;html=1;fontStyle=0" vertex="1" parent="1">
          <mxGeometry x="-260" y="1995.39" width="100" height="50" as="geometry" />
        </mxCell>
        <mxCell id="dYfUtoOKjhOXSEv8nHm--55" value="" style="endArrow=none;html=1;rounded=0;" edge="1" parent="1" source="dYfUtoOKjhOXSEv8nHm--47" target="dYfUtoOKjhOXSEv8nHm--48">
          <mxGeometry width="50" height="50" relative="1" as="geometry">
            <mxPoint x="-275" y="1883.13" as="sourcePoint" />
            <mxPoint x="-328" y="1713.13" as="targetPoint" />
          </mxGeometry>
        </mxCell>
        <mxCell id="dYfUtoOKjhOXSEv8nHm--56" value="" style="endArrow=none;html=1;rounded=0;" edge="1" parent="1" target="dYfUtoOKjhOXSEv8nHm--57" source="dYfUtoOKjhOXSEv8nHm--47">
          <mxGeometry width="50" height="50" relative="1" as="geometry">
            <mxPoint x="-196" y="1914.13" as="sourcePoint" />
            <mxPoint x="-65.79999999999995" y="1914.13" as="targetPoint" />
          </mxGeometry>
        </mxCell>
        <mxCell id="dYfUtoOKjhOXSEv8nHm--57" value="mã nhân viên" style="ellipse;whiteSpace=wrap;html=1;fontStyle=0" vertex="1" parent="1">
          <mxGeometry x="-560" y="1953.13" width="100" height="50" as="geometry" />
        </mxCell>
        <mxCell id="dYfUtoOKjhOXSEv8nHm--58" value="Chi tiết hoá đơn" style="rounded=0;whiteSpace=wrap;html=1;" vertex="1" parent="1">
          <mxGeometry x="-344" y="1549" width="120" height="60" as="geometry" />
        </mxCell>
        <mxCell id="dYfUtoOKjhOXSEv8nHm--59" value="&lt;u&gt;mã chi tiết hoá đơn&lt;/u&gt;" style="ellipse;whiteSpace=wrap;html=1;" vertex="1" parent="1">
          <mxGeometry x="-410" y="1368" width="100" height="50" as="geometry" />
        </mxCell>
        <mxCell id="dYfUtoOKjhOXSEv8nHm--60" value="mã sản phẩm" style="ellipse;whiteSpace=wrap;html=1;fontStyle=0" vertex="1" parent="1">
          <mxGeometry x="-324" y="1399" width="100" height="50" as="geometry" />
        </mxCell>
        <mxCell id="dYfUtoOKjhOXSEv8nHm--61" value="&lt;span&gt;số lượng&lt;/span&gt;" style="ellipse;whiteSpace=wrap;html=1;fontStyle=0" vertex="1" parent="1">
          <mxGeometry x="-250" y="1359" width="100" height="50" as="geometry" />
        </mxCell>
        <mxCell id="dYfUtoOKjhOXSEv8nHm--62" value="" style="endArrow=none;html=1;rounded=0;" edge="1" parent="1" source="dYfUtoOKjhOXSEv8nHm--58" target="dYfUtoOKjhOXSEv8nHm--60">
          <mxGeometry width="50" height="50" relative="1" as="geometry">
            <mxPoint x="-315" y="1309" as="sourcePoint" />
            <mxPoint x="-260" y="1289" as="targetPoint" />
          </mxGeometry>
        </mxCell>
        <mxCell id="dYfUtoOKjhOXSEv8nHm--63" value="" style="endArrow=none;html=1;rounded=0;" edge="1" parent="1" source="dYfUtoOKjhOXSEv8nHm--58" target="dYfUtoOKjhOXSEv8nHm--61">
          <mxGeometry width="50" height="50" relative="1" as="geometry">
            <mxPoint x="-292" y="1309" as="sourcePoint" />
            <mxPoint x="-170" y="1319" as="targetPoint" />
          </mxGeometry>
        </mxCell>
        <mxCell id="dYfUtoOKjhOXSEv8nHm--64" value="" style="endArrow=none;html=1;rounded=0;" edge="1" parent="1" source="dYfUtoOKjhOXSEv8nHm--58" target="dYfUtoOKjhOXSEv8nHm--65">
          <mxGeometry width="50" height="50" relative="1" as="geometry">
            <mxPoint x="-258" y="1309" as="sourcePoint" />
            <mxPoint x="-141.79999999999995" y="1399" as="targetPoint" />
          </mxGeometry>
        </mxCell>
        <mxCell id="dYfUtoOKjhOXSEv8nHm--65" value="đơn giá" style="ellipse;whiteSpace=wrap;html=1;fontStyle=0" vertex="1" parent="1">
          <mxGeometry x="-230" y="1464" width="100" height="50" as="geometry" />
        </mxCell>
        <mxCell id="dYfUtoOKjhOXSEv8nHm--66" value="" style="endArrow=none;html=1;rounded=0;" edge="1" parent="1" source="dYfUtoOKjhOXSEv8nHm--58" target="dYfUtoOKjhOXSEv8nHm--59">
          <mxGeometry width="50" height="50" relative="1" as="geometry">
            <mxPoint x="-295" y="1409" as="sourcePoint" />
            <mxPoint x="-348" y="1239" as="targetPoint" />
          </mxGeometry>
        </mxCell>
        <mxCell id="dYfUtoOKjhOXSEv8nHm--67" value="" style="endArrow=none;html=1;rounded=0;" edge="1" parent="1" source="dYfUtoOKjhOXSEv8nHm--58" target="dYfUtoOKjhOXSEv8nHm--68">
          <mxGeometry width="50" height="50" relative="1" as="geometry">
            <mxPoint x="-216" y="1440" as="sourcePoint" />
            <mxPoint x="-85.79999999999995" y="1440" as="targetPoint" />
          </mxGeometry>
        </mxCell>
        <mxCell id="dYfUtoOKjhOXSEv8nHm--68" value="tổng tiền" style="ellipse;whiteSpace=wrap;html=1;fontStyle=0" vertex="1" parent="1">
          <mxGeometry x="-430" y="1434" width="100" height="50" as="geometry" />
        </mxCell>
        <mxCell id="dYfUtoOKjhOXSEv8nHm--69" value="" style="endArrow=none;html=1;rounded=0;" edge="1" parent="1" target="dYfUtoOKjhOXSEv8nHm--70" source="dYfUtoOKjhOXSEv8nHm--58">
          <mxGeometry width="50" height="50" relative="1" as="geometry">
            <mxPoint x="-429" y="1459" as="sourcePoint" />
            <mxPoint x="-175.79999999999995" y="1500" as="targetPoint" />
          </mxGeometry>
        </mxCell>
        <mxCell id="dYfUtoOKjhOXSEv8nHm--70" value="trạng thái" style="ellipse;whiteSpace=wrap;html=1;fontStyle=0" vertex="1" parent="1">
          <mxGeometry x="-424" y="1484" width="100" height="50" as="geometry" />
        </mxCell>
        <mxCell id="dYfUtoOKjhOXSEv8nHm--71" value="Khuyến mãi" style="rounded=0;whiteSpace=wrap;html=1;" vertex="1" parent="1">
          <mxGeometry x="154.1" y="1922.26" width="120" height="60" as="geometry" />
        </mxCell>
        <mxCell id="dYfUtoOKjhOXSEv8nHm--72" value="&lt;u&gt;mã khuyến mãi&lt;/u&gt;" style="ellipse;whiteSpace=wrap;html=1;" vertex="1" parent="1">
          <mxGeometry x="303.1" y="1830" width="100" height="50" as="geometry" />
        </mxCell>
        <mxCell id="dYfUtoOKjhOXSEv8nHm--73" value="loại khuyến mãi" style="ellipse;whiteSpace=wrap;html=1;fontStyle=0" vertex="1" parent="1">
          <mxGeometry x="350" y="2010.0000000000002" width="100" height="50" as="geometry" />
        </mxCell>
        <mxCell id="dYfUtoOKjhOXSEv8nHm--74" value="&lt;span&gt;phần trăm giảm giá&lt;/span&gt;" style="ellipse;whiteSpace=wrap;html=1;fontStyle=0" vertex="1" parent="1">
          <mxGeometry x="320" y="1890" width="100" height="50" as="geometry" />
        </mxCell>
        <mxCell id="dYfUtoOKjhOXSEv8nHm--75" value="" style="endArrow=none;html=1;rounded=0;" edge="1" parent="1" source="dYfUtoOKjhOXSEv8nHm--71" target="dYfUtoOKjhOXSEv8nHm--73">
          <mxGeometry width="50" height="50" relative="1" as="geometry">
            <mxPoint x="195.1" y="1832.26" as="sourcePoint" />
            <mxPoint x="250.1" y="1812.26" as="targetPoint" />
          </mxGeometry>
        </mxCell>
        <mxCell id="dYfUtoOKjhOXSEv8nHm--76" value="" style="endArrow=none;html=1;rounded=0;" edge="1" parent="1" source="dYfUtoOKjhOXSEv8nHm--71" target="dYfUtoOKjhOXSEv8nHm--74">
          <mxGeometry width="50" height="50" relative="1" as="geometry">
            <mxPoint x="218.1" y="1832.26" as="sourcePoint" />
            <mxPoint x="340.1" y="1842.26" as="targetPoint" />
          </mxGeometry>
        </mxCell>
        <mxCell id="dYfUtoOKjhOXSEv8nHm--79" value="" style="endArrow=none;html=1;rounded=0;" edge="1" parent="1" source="dYfUtoOKjhOXSEv8nHm--71" target="dYfUtoOKjhOXSEv8nHm--72">
          <mxGeometry width="50" height="50" relative="1" as="geometry">
            <mxPoint x="215.1" y="1932.26" as="sourcePoint" />
            <mxPoint x="162.1" y="1762.26" as="targetPoint" />
          </mxGeometry>
        </mxCell>
        <mxCell id="dYfUtoOKjhOXSEv8nHm--80" value="" style="endArrow=none;html=1;rounded=0;" edge="1" parent="1" source="dYfUtoOKjhOXSEv8nHm--71" target="dYfUtoOKjhOXSEv8nHm--81">
          <mxGeometry width="50" height="50" relative="1" as="geometry">
            <mxPoint x="294.1" y="1963.26" as="sourcePoint" />
            <mxPoint x="424.30000000000007" y="1963.26" as="targetPoint" />
          </mxGeometry>
        </mxCell>
        <mxCell id="dYfUtoOKjhOXSEv8nHm--81" value="ngày bắt đầu" style="ellipse;whiteSpace=wrap;html=1;fontStyle=0" vertex="1" parent="1">
          <mxGeometry x="240" y="2022.2600000000002" width="100" height="50" as="geometry" />
        </mxCell>
        <mxCell id="dYfUtoOKjhOXSEv8nHm--82" value="" style="endArrow=none;html=1;rounded=0;" edge="1" parent="1" source="dYfUtoOKjhOXSEv8nHm--71" target="dYfUtoOKjhOXSEv8nHm--83">
          <mxGeometry width="50" height="50" relative="1" as="geometry">
            <mxPoint x="81.1" y="1982.26" as="sourcePoint" />
            <mxPoint x="334.30000000000007" y="2023.26" as="targetPoint" />
          </mxGeometry>
        </mxCell>
        <mxCell id="dYfUtoOKjhOXSEv8nHm--83" value="combo khuyến mãi" style="ellipse;whiteSpace=wrap;html=1;fontStyle=0" vertex="1" parent="1">
          <mxGeometry x="330" y="1952.2600000000002" width="100" height="50" as="geometry" />
        </mxCell>
        <mxCell id="dYfUtoOKjhOXSEv8nHm--84" value="Sản phẩm" style="rounded=0;whiteSpace=wrap;html=1;" vertex="1" parent="1">
          <mxGeometry x="78.10000000000001" y="1404" width="120" height="60" as="geometry" />
        </mxCell>
        <mxCell id="dYfUtoOKjhOXSEv8nHm--85" value="&lt;u&gt;mã sản phẩm&lt;/u&gt;" style="ellipse;whiteSpace=wrap;html=1;" vertex="1" parent="1">
          <mxGeometry x="-13.799999999999997" y="1329" width="100" height="50" as="geometry" />
        </mxCell>
        <mxCell id="dYfUtoOKjhOXSEv8nHm--86" value="&lt;span&gt;tên sản phẩm&lt;/span&gt;" style="ellipse;whiteSpace=wrap;html=1;fontStyle=0" vertex="1" parent="1">
          <mxGeometry x="64.10000000000004" y="1284" width="100" height="50" as="geometry" />
        </mxCell>
        <mxCell id="dYfUtoOKjhOXSEv8nHm--87" value="&lt;span&gt;giá&lt;/span&gt;" style="ellipse;whiteSpace=wrap;html=1;fontStyle=0" vertex="1" parent="1">
          <mxGeometry x="164.09999999999997" y="1320" width="100" height="50" as="geometry" />
        </mxCell>
        <mxCell id="dYfUtoOKjhOXSEv8nHm--88" value="" style="endArrow=none;html=1;rounded=0;" edge="1" parent="1" source="dYfUtoOKjhOXSEv8nHm--84" target="dYfUtoOKjhOXSEv8nHm--86">
          <mxGeometry width="50" height="50" relative="1" as="geometry">
            <mxPoint x="119.10000000000001" y="1314" as="sourcePoint" />
            <mxPoint x="174.09999999999997" y="1294" as="targetPoint" />
          </mxGeometry>
        </mxCell>
        <mxCell id="dYfUtoOKjhOXSEv8nHm--89" value="" style="endArrow=none;html=1;rounded=0;" edge="1" parent="1" source="dYfUtoOKjhOXSEv8nHm--84" target="dYfUtoOKjhOXSEv8nHm--87">
          <mxGeometry width="50" height="50" relative="1" as="geometry">
            <mxPoint x="142.10000000000002" y="1314" as="sourcePoint" />
            <mxPoint x="264.09999999999997" y="1324" as="targetPoint" />
          </mxGeometry>
        </mxCell>
        <mxCell id="dYfUtoOKjhOXSEv8nHm--92" value="" style="endArrow=none;html=1;rounded=0;" edge="1" parent="1" source="dYfUtoOKjhOXSEv8nHm--84" target="dYfUtoOKjhOXSEv8nHm--85">
          <mxGeometry width="50" height="50" relative="1" as="geometry">
            <mxPoint x="139.10000000000002" y="1414" as="sourcePoint" />
            <mxPoint x="86.10000000000001" y="1244" as="targetPoint" />
          </mxGeometry>
        </mxCell>
        <mxCell id="dYfUtoOKjhOXSEv8nHm--94" value="Thành viên" style="rounded=0;whiteSpace=wrap;html=1;" vertex="1" parent="1">
          <mxGeometry x="-733" y="1670" width="120" height="60" as="geometry" />
        </mxCell>
        <mxCell id="dYfUtoOKjhOXSEv8nHm--96" value="&lt;span&gt;họ tên&lt;/span&gt;" style="ellipse;whiteSpace=wrap;html=1;fontStyle=0" vertex="1" parent="1">
          <mxGeometry x="-800" y="1590" width="100" height="50" as="geometry" />
        </mxCell>
        <mxCell id="dYfUtoOKjhOXSEv8nHm--97" value="&lt;span&gt;sdt&lt;/span&gt;" style="ellipse;whiteSpace=wrap;html=1;fontStyle=4" vertex="1" parent="1">
          <mxGeometry x="-713" y="1540" width="100" height="50" as="geometry" />
        </mxCell>
        <mxCell id="dYfUtoOKjhOXSEv8nHm--98" value="" style="endArrow=none;html=1;rounded=0;" edge="1" parent="1" source="dYfUtoOKjhOXSEv8nHm--94" target="dYfUtoOKjhOXSEv8nHm--96">
          <mxGeometry width="50" height="50" relative="1" as="geometry">
            <mxPoint x="-678" y="1560" as="sourcePoint" />
            <mxPoint x="-623" y="1540" as="targetPoint" />
          </mxGeometry>
        </mxCell>
        <mxCell id="dYfUtoOKjhOXSEv8nHm--99" value="" style="endArrow=none;html=1;rounded=0;" edge="1" parent="1" source="dYfUtoOKjhOXSEv8nHm--94" target="dYfUtoOKjhOXSEv8nHm--97">
          <mxGeometry width="50" height="50" relative="1" as="geometry">
            <mxPoint x="-655" y="1560" as="sourcePoint" />
            <mxPoint x="-533" y="1570" as="targetPoint" />
          </mxGeometry>
        </mxCell>
        <mxCell id="dYfUtoOKjhOXSEv8nHm--100" value="" style="endArrow=none;html=1;rounded=0;" edge="1" parent="1" source="dYfUtoOKjhOXSEv8nHm--94" target="dYfUtoOKjhOXSEv8nHm--101">
          <mxGeometry width="50" height="50" relative="1" as="geometry">
            <mxPoint x="-621" y="1560" as="sourcePoint" />
            <mxPoint x="-504.79999999999995" y="1650" as="targetPoint" />
          </mxGeometry>
        </mxCell>
        <mxCell id="dYfUtoOKjhOXSEv8nHm--101" value="&lt;span&gt;email&lt;/span&gt;" style="ellipse;whiteSpace=wrap;html=1;fontStyle=0" vertex="1" parent="1">
          <mxGeometry x="-625" y="1569.5" width="100" height="50" as="geometry" />
        </mxCell>
        <mxCell id="dYfUtoOKjhOXSEv8nHm--105" value="tạo" style="rhombus;whiteSpace=wrap;html=1;" vertex="1" parent="1">
          <mxGeometry x="-100" y="1714" width="120" height="80" as="geometry" />
        </mxCell>
        <mxCell id="dYfUtoOKjhOXSEv8nHm--106" value="" style="endArrow=none;html=1;rounded=0;exitX=0;exitY=1;exitDx=0;exitDy=0;" edge="1" parent="1" source="dYfUtoOKjhOXSEv8nHm--105" target="dYfUtoOKjhOXSEv8nHm--47">
          <mxGeometry width="50" height="50" relative="1" as="geometry">
            <mxPoint x="-34" y="1920" as="sourcePoint" />
            <mxPoint x="-34" y="1840" as="targetPoint" />
          </mxGeometry>
        </mxCell>
        <mxCell id="dYfUtoOKjhOXSEv8nHm--107" value="n" style="edgeLabel;html=1;align=center;verticalAlign=middle;resizable=0;points=[];" vertex="1" connectable="0" parent="dYfUtoOKjhOXSEv8nHm--106">
          <mxGeometry x="0.6418" y="-1" relative="1" as="geometry">
            <mxPoint as="offset" />
          </mxGeometry>
        </mxCell>
        <mxCell id="dYfUtoOKjhOXSEv8nHm--108" value="" style="endArrow=none;html=1;rounded=0;exitX=1;exitY=0.5;exitDx=0;exitDy=0;" edge="1" parent="1" source="dYfUtoOKjhOXSEv8nHm--105" target="dYfUtoOKjhOXSEv8nHm--35">
          <mxGeometry width="50" height="50" relative="1" as="geometry">
            <mxPoint x="-115" y="1890" as="sourcePoint" />
            <mxPoint x="-95" y="1920" as="targetPoint" />
          </mxGeometry>
        </mxCell>
        <mxCell id="dYfUtoOKjhOXSEv8nHm--109" value="1" style="edgeLabel;html=1;align=center;verticalAlign=middle;resizable=0;points=[];" vertex="1" connectable="0" parent="dYfUtoOKjhOXSEv8nHm--108">
          <mxGeometry x="0.696" relative="1" as="geometry">
            <mxPoint as="offset" />
          </mxGeometry>
        </mxCell>
        <mxCell id="dYfUtoOKjhOXSEv8nHm--110" value="có" style="rhombus;whiteSpace=wrap;html=1;" vertex="1" parent="1">
          <mxGeometry x="-544" y="1770" width="120" height="80" as="geometry" />
        </mxCell>
        <mxCell id="dYfUtoOKjhOXSEv8nHm--111" value="" style="endArrow=none;html=1;rounded=0;" edge="1" parent="1" source="dYfUtoOKjhOXSEv8nHm--110" target="dYfUtoOKjhOXSEv8nHm--47">
          <mxGeometry width="50" height="50" relative="1" as="geometry">
            <mxPoint x="-270" y="1950" as="sourcePoint" />
            <mxPoint x="-270" y="1870" as="targetPoint" />
          </mxGeometry>
        </mxCell>
        <mxCell id="dYfUtoOKjhOXSEv8nHm--112" value="n" style="edgeLabel;html=1;align=center;verticalAlign=middle;resizable=0;points=[];" vertex="1" connectable="0" parent="dYfUtoOKjhOXSEv8nHm--111">
          <mxGeometry x="0.6418" y="-1" relative="1" as="geometry">
            <mxPoint as="offset" />
          </mxGeometry>
        </mxCell>
        <mxCell id="dYfUtoOKjhOXSEv8nHm--113" value="" style="endArrow=none;html=1;rounded=0;" edge="1" parent="1" source="dYfUtoOKjhOXSEv8nHm--110" target="dYfUtoOKjhOXSEv8nHm--94">
          <mxGeometry width="50" height="50" relative="1" as="geometry">
            <mxPoint x="-290" y="2090" as="sourcePoint" />
            <mxPoint x="-270" y="2120" as="targetPoint" />
          </mxGeometry>
        </mxCell>
        <mxCell id="dYfUtoOKjhOXSEv8nHm--114" value="1" style="edgeLabel;html=1;align=center;verticalAlign=middle;resizable=0;points=[];" vertex="1" connectable="0" parent="dYfUtoOKjhOXSEv8nHm--113">
          <mxGeometry x="0.696" relative="1" as="geometry">
            <mxPoint as="offset" />
          </mxGeometry>
        </mxCell>
        <mxCell id="dYfUtoOKjhOXSEv8nHm--125" value="áp dụng" style="rhombus;whiteSpace=wrap;html=1;" vertex="1" parent="1">
          <mxGeometry x="-86" y="1912.26" width="120" height="80" as="geometry" />
        </mxCell>
        <mxCell id="dYfUtoOKjhOXSEv8nHm--126" value="" style="endArrow=none;html=1;rounded=0;exitX=0;exitY=0.5;exitDx=0;exitDy=0;" edge="1" parent="1" source="dYfUtoOKjhOXSEv8nHm--125" target="dYfUtoOKjhOXSEv8nHm--47">
          <mxGeometry width="50" height="50" relative="1" as="geometry">
            <mxPoint x="-260" y="1960" as="sourcePoint" />
            <mxPoint x="-260" y="1880" as="targetPoint" />
          </mxGeometry>
        </mxCell>
        <mxCell id="dYfUtoOKjhOXSEv8nHm--127" value="n" style="edgeLabel;html=1;align=center;verticalAlign=middle;resizable=0;points=[];" vertex="1" connectable="0" parent="dYfUtoOKjhOXSEv8nHm--126">
          <mxGeometry x="0.6418" y="-1" relative="1" as="geometry">
            <mxPoint as="offset" />
          </mxGeometry>
        </mxCell>
        <mxCell id="dYfUtoOKjhOXSEv8nHm--128" value="" style="endArrow=none;html=1;rounded=0;" edge="1" parent="1" source="dYfUtoOKjhOXSEv8nHm--125" target="dYfUtoOKjhOXSEv8nHm--71">
          <mxGeometry width="50" height="50" relative="1" as="geometry">
            <mxPoint x="36" y="1940" as="sourcePoint" />
            <mxPoint x="56" y="1970" as="targetPoint" />
          </mxGeometry>
        </mxCell>
        <mxCell id="dYfUtoOKjhOXSEv8nHm--129" value="1" style="edgeLabel;html=1;align=center;verticalAlign=middle;resizable=0;points=[];" vertex="1" connectable="0" parent="dYfUtoOKjhOXSEv8nHm--128">
          <mxGeometry x="0.696" relative="1" as="geometry">
            <mxPoint as="offset" />
          </mxGeometry>
        </mxCell>
        <mxCell id="dYfUtoOKjhOXSEv8nHm--131" value="có" style="rhombus;whiteSpace=wrap;html=1;" vertex="1" parent="1">
          <mxGeometry x="-344" y="1680" width="120" height="80" as="geometry" />
        </mxCell>
        <mxCell id="dYfUtoOKjhOXSEv8nHm--132" value="" style="endArrow=none;html=1;rounded=0;" edge="1" parent="1" source="dYfUtoOKjhOXSEv8nHm--131" target="dYfUtoOKjhOXSEv8nHm--58">
          <mxGeometry width="50" height="50" relative="1" as="geometry">
            <mxPoint x="-250" y="1970" as="sourcePoint" />
            <mxPoint x="-250" y="1890" as="targetPoint" />
          </mxGeometry>
        </mxCell>
        <mxCell id="dYfUtoOKjhOXSEv8nHm--133" value="n" style="edgeLabel;html=1;align=center;verticalAlign=middle;resizable=0;points=[];" vertex="1" connectable="0" parent="dYfUtoOKjhOXSEv8nHm--132">
          <mxGeometry x="0.6418" y="-1" relative="1" as="geometry">
            <mxPoint as="offset" />
          </mxGeometry>
        </mxCell>
        <mxCell id="dYfUtoOKjhOXSEv8nHm--134" value="" style="endArrow=none;html=1;rounded=0;" edge="1" parent="1" source="dYfUtoOKjhOXSEv8nHm--131" target="dYfUtoOKjhOXSEv8nHm--47">
          <mxGeometry width="50" height="50" relative="1" as="geometry">
            <mxPoint x="-270" y="2110" as="sourcePoint" />
            <mxPoint x="-250" y="2140" as="targetPoint" />
          </mxGeometry>
        </mxCell>
        <mxCell id="dYfUtoOKjhOXSEv8nHm--135" value="1" style="edgeLabel;html=1;align=center;verticalAlign=middle;resizable=0;points=[];" vertex="1" connectable="0" parent="dYfUtoOKjhOXSEv8nHm--134">
          <mxGeometry x="0.696" relative="1" as="geometry">
            <mxPoint as="offset" />
          </mxGeometry>
        </mxCell>
        <mxCell id="dYfUtoOKjhOXSEv8nHm--137" value="có" style="rhombus;whiteSpace=wrap;html=1;" vertex="1" parent="1">
          <mxGeometry x="-130" y="1534" width="120" height="80" as="geometry" />
        </mxCell>
        <mxCell id="dYfUtoOKjhOXSEv8nHm--138" value="" style="endArrow=none;html=1;rounded=0;" edge="1" parent="1" source="dYfUtoOKjhOXSEv8nHm--137" target="dYfUtoOKjhOXSEv8nHm--58">
          <mxGeometry width="50" height="50" relative="1" as="geometry">
            <mxPoint y="1960" as="sourcePoint" />
            <mxPoint x="-45" y="1454" as="targetPoint" />
          </mxGeometry>
        </mxCell>
        <mxCell id="dYfUtoOKjhOXSEv8nHm--139" value="n" style="edgeLabel;html=1;align=center;verticalAlign=middle;resizable=0;points=[];" vertex="1" connectable="0" parent="dYfUtoOKjhOXSEv8nHm--138">
          <mxGeometry x="0.6418" y="-1" relative="1" as="geometry">
            <mxPoint as="offset" />
          </mxGeometry>
        </mxCell>
        <mxCell id="dYfUtoOKjhOXSEv8nHm--140" value="" style="endArrow=none;html=1;rounded=0;" edge="1" parent="1" source="dYfUtoOKjhOXSEv8nHm--137" target="dYfUtoOKjhOXSEv8nHm--84">
          <mxGeometry width="50" height="50" relative="1" as="geometry">
            <mxPoint x="-20" y="2100" as="sourcePoint" />
            <mxPoint x="-36" y="1860" as="targetPoint" />
          </mxGeometry>
        </mxCell>
        <mxCell id="dYfUtoOKjhOXSEv8nHm--141" value="1" style="edgeLabel;html=1;align=center;verticalAlign=middle;resizable=0;points=[];" vertex="1" connectable="0" parent="dYfUtoOKjhOXSEv8nHm--140">
          <mxGeometry x="0.696" relative="1" as="geometry">
            <mxPoint as="offset" />
          </mxGeometry>
        </mxCell>
        <mxCell id="dYfUtoOKjhOXSEv8nHm--143" value="ngày kết thúc" style="ellipse;whiteSpace=wrap;html=1;fontStyle=0" vertex="1" parent="1">
          <mxGeometry x="177.1" y="2075.39" width="100" height="50" as="geometry" />
        </mxCell>
        <mxCell id="dYfUtoOKjhOXSEv8nHm--144" value="" style="endArrow=none;html=1;rounded=0;" edge="1" parent="1" source="dYfUtoOKjhOXSEv8nHm--71" target="dYfUtoOKjhOXSEv8nHm--143">
          <mxGeometry width="50" height="50" relative="1" as="geometry">
            <mxPoint x="248" y="1992" as="sourcePoint" />
            <mxPoint x="281" y="2034" as="targetPoint" />
          </mxGeometry>
        </mxCell>
        <mxCell id="dYfUtoOKjhOXSEv8nHm--145" value="&lt;span&gt;số lượng&lt;/span&gt;" style="ellipse;whiteSpace=wrap;html=1;fontStyle=0" vertex="1" parent="1">
          <mxGeometry x="239.99999999999997" y="1370" width="100" height="50" as="geometry" />
        </mxCell>
        <mxCell id="dYfUtoOKjhOXSEv8nHm--146" value="" style="endArrow=none;html=1;rounded=0;" edge="1" parent="1" target="dYfUtoOKjhOXSEv8nHm--145" source="dYfUtoOKjhOXSEv8nHm--84">
          <mxGeometry width="50" height="50" relative="1" as="geometry">
            <mxPoint x="282.09999999999997" y="1510" as="sourcePoint" />
            <mxPoint x="383.09999999999997" y="1280" as="targetPoint" />
          </mxGeometry>
        </mxCell>
      </root>
    </mxGraphModel>
  </diagram>
</mxfile>
